<svg xmlns="http://www.w3.org/2000/svg" width="262" height="80" fill="none" viewBox="0 0 262 80"><path fill="#222" d="M32.344 30.406q-1.594.72-3.282 1.188-1.656.437-3.343.843-.063 0-.344.063a7 7 0 0 0-.531.156q-.282.063-.532.125l-.218.032q-.375-.126-.75 0a6 6 0 0 0-.719.25 4 4 0 0 1-.75.25q-.406.063-.906-.157-.094-.03-.344.063a2.4 2.4 0 0 0-.5.187 1.7 1.7 0 0 0-.437.313q-.187.156-.22.281l.188.188q.032.093-.093.374l-.282.563a5 5 0 0 1-.343.531q-.157.25-.25.313.03.28-.157.687-.156.375-.375.813-.187.437-.375.906a2.8 2.8 0 0 0-.156.875q0 .125.031.25.032.124 0 .219l-.031.062a1.5 1.5 0 0 0-.469.657 8 8 0 0 0-.218.812q-.063.406-.188.813-.093.406-.344.718v.032l-.031.03q-.406.189-.687.063a1.6 1.6 0 0 1-.47-.375 7 7 0 0 1-.374-.562 2.4 2.4 0 0 0-.375-.594q-.126-.406-.094-.687.031-.313.281-.626l.063-.03q-.188-.25-.125-.438.093-.22.187-.407a1 1 0 0 0 .156-.374q.063-.22-.187-.5l.063-.063q.405-.406.437-.906.03-.532-.062-1.063a18 18 0 0 1-.094-1.062q0-.531.312-.969l.031-.031q.032-.188-.25-.5a13 13 0 0 0-.437-.469q-.188.47-.5.5a2.8 2.8 0 0 1-.656-.094 8 8 0 0 0-.688-.156q-.343-.063-.625.219l-.156.125-.062-.125q-.125-.282-.344-.282-.188-.03-.438 0l-.719.063h-.656a.55.55 0 0 0-.437-.125L9 33.438q-.219.03-.469.03-.219-.03-.437-.28-.219.093-.688.75-.468.624-1 1.406-.5.78-.968 1.531-.438.72-.594 1l-.313.469q-.156.28-.343.593-.188.282-.344.563a5 5 0 0 0-.25.438l.031.093q0 .313-.094.5a1 1 0 0 1-.25.282l-.25.187a.8.8 0 0 0-.219.156q-.25 0-.374.125a1.5 1.5 0 0 0-.22.282 1.5 1.5 0 0 1-.218.28q-.156.126-.469.126a1.6 1.6 0 0 0-.156.218q-.03.063-.094.25a9 9 0 0 1-.093.313 1 1 0 0 1-.094.125.5.5 0 0 1-.125.094 1 1 0 0 0-.125.156q-.188.03-.281-.062a1.3 1.3 0 0 1-.188-.25 1.2 1.2 0 0 1-.156-.282.6.6 0 0 0-.219-.187l.031-.094q.626-1.844 1.5-3.5a59 59 0 0 1 1.875-3.344q.063-.124.094-.25.03-.124.094-.25.156-.406.312-.781.188-.375.438-.719.218-.344.375-.656.188-.312.343-.656L5 32.03a15 15 0 0 1-1.75-1.656 16 16 0 0 1-1.375-1.969l-.312-.562a7 7 0 0 0-.313-.563l-.031-.031q0-.625.093-1.25.094-.625.563-1.094l.031-.031v-.031a1.4 1.4 0 0 1 .344-.469q.188-.156.375-.25.219-.094.438-.156.218-.095.437-.282v-.03q.72-.314 1.406-.532.688-.219 1.469.188l.063-.032q.28-.156.687-.156.405-.03.719-.031.188.094.375.25.219.124.406.25.219.125.438.187a.54.54 0 0 0 .406-.031H9.5v-.031q.312-.313.5-.875.188-.594.375-1.25.219-.657.469-1.282.25-.656.687-1.125 0-.093.125-.406.126-.343.25-.75.156-.437.219-.843.095-.438 0-.72l.281.032a.6.6 0 0 0 .156-.219l-.03-.093a.34.34 0 0 1-.095-.313q.032-.188.094-.344H12.5l-.031-.125q.093-.03.344-.125.28-.093.562-.219.281-.125.5-.218.25-.094.281-.094.438.25.469.563.063.312-.031.75-.031.218-.031.375.03.125.03.312 0 .313-.155.781-.157.438-.376.938-.186.5-.437.937a13 13 0 0 1-.437.719v.188q0 .655-.188 1.375-.187.687-.469 1.375a16 16 0 0 1-.625 1.343 35 35 0 0 1-.625 1.25q-.219.375-.469.875-.25.47-.5.969-.217.5-.406 1.031a6 6 0 0 0-.219.907v.03l-.78 1.47q.125.156.374.28l.563.188q.312.094.594.157.312.03.53.03.344 0 .563.063.25.031.5.313l.063.062h.062a1.8 1.8 0 0 1 .438-.062h.437q.25.062.469.031l.5-.062-.031.218q.156.156.25.219.156-.25.375-.5.124.188.219.281a.9.9 0 0 0 .218-.25q.156-.187.219-.187l.031-.032.031.032q.564.187 1.032.125a8 8 0 0 1 1.031-.063.9.9 0 0 1 .25-.343q.188-.126.313-.25a.63.63 0 0 0 .187-.313q.03-.156-.156-.437l-.032-.063.094-.187a7 7 0 0 0 .25-.407l.219-.437A18 18 0 0 0 19.75 27q.47-1.094.469-2.312v-.22a.3.3 0 0 1 .125-.03q.468-.188.5-.5.03-.345-.032-.72t0-.75q.095-.375.657-.655l.062-.032.032-.062q.188-.469.312-.938.156-.5.344-.968.594-1.406.875-3.032.062-.374.281-.656.25-.312.5-.594.25-.312.438-.625.218-.343.218-.75 0-.25-.062-.344v-.093l.062-.031q.626-.314.969-.782.345-.468.344-1.187 0-.094-.032-.344 0-.25-.062-.312.281-.188.594-.5l.062.03q.594.438.719.907.156.438.063.906a6 6 0 0 1-.22.969 3.4 3.4 0 0 0-.155 1.031l-.032.031a7.8 7.8 0 0 0-.75 1.844 7.6 7.6 0 0 0-.281 2q-.344 0-.437.157-.063.157-.125.406-.032.219-.125.468-.063.25-.375.438l.062.094v.093q.03.032.031.094 0 .188-.093.344a3 3 0 0 0-.188.281.7.7 0 0 0-.125.282q0 .156.156.343.126.188.157.219h-.344a24 24 0 0 0-.907 1.969q-.405.999-.75 2.031a42 42 0 0 1-.593 1.719 13 13 0 0 1-.75 1.656v.094q.281.531.031.843a3.2 3.2 0 0 1-.5.563 1.3 1.3 0 0 0-.344.438q-.093.218.438.562.405-.406.75-.281.343.124.843.25l.157-.157q.093-.093.281-.03l.063.062q.03 0 .062.031.188-.281.344-.312a.54.54 0 0 1 .312.03l.313.126a.34.34 0 0 0 .312-.032.3.3 0 0 0 .125-.187q.031-.156.094-.281.47.468.781.468.345-.03.625-.187.313-.188.594-.344.312-.156.719.032.343 0 .687-.063.375-.094.719-.156a28 28 0 0 1 1.781-.25 6.4 6.4 0 0 1 1.782.062zm-24.031-6q-.282 0-.532.032a.7.7 0 0 0-.406.218q-.031-.03-.062-.031-1.22-.344-2.344.125-1.125.469-1.938 1.344l-.062.25a.7.7 0 0 0-.031.218v.157q0 .594.28 1.093.189.375.438.625.282.25.594.47.345.217.656.437.345.219.625.531.625 0 .844-.312.25-.344.344-.782l.25-.937q.125-.47.531-.75h.031q0-.032.032-.032a.8.8 0 0 1 0-.625q.156-.312.343-.625.219-.312.344-.656.156-.343.063-.75M48.906 38.72q-.437.75-.687 1.218a4.2 4.2 0 0 1-.469.75 3.2 3.2 0 0 1-.531.532q-.282.219-.813.562-.343.313-.687.532-.281.218-.563.374-.25.157-.406.157a.3.3 0 0 1-.125-.032h-.5q-.156.031-.281-.218a.8.8 0 0 0-.157.218 2 2 0 0 1-.124.22.4.4 0 0 1-.188.187q-.093.062-.281 0l-.157-.188-.468.407a19 19 0 0 0-1.688-.75A6.8 6.8 0 0 1 39.375 42a3.9 3.9 0 0 1-1.062-1.031q-.437-.657-.626-1.782a1.6 1.6 0 0 0-.343-.312.47.47 0 0 0-.438-.094 3.6 3.6 0 0 1-.75.907q-.437.374-.875.812a1.3 1.3 0 0 0-.25.344q-.093.188-.25.343a1.45 1.45 0 0 1-.593.407l-.688.187q-.344.094-.656.313-.282.219-.407.75a.98.98 0 0 0-.75-.125q-.28.062-.593.125a2.2 2.2 0 0 1-.625.093q-.281.031-.563-.062-.28-.093-.5-.406-.437.187-.812-.032a2.8 2.8 0 0 1-.719-.53q-.312-.375-.625-.782-.312-.406-.594-.594-.187-.5.032-.843.187-.376.437-.688.219-.344.313-.656.093-.344-.282-.813.313-.468.563-.968.25-.532.5-1.032.281-.53.562-1 .313-.5.75-.843-.187-.22-.187-.407 0-.219.093-.406.094-.219.22-.406.124-.22.187-.407l.906-.437-.219-.75q.345.063.5-.031a.47.47 0 0 0 .25-.282q.094-.187.125-.406.063-.25.157-.437a.9.9 0 0 1 .468-.407q.657-.5 1.282-1.062.656-.563 1.28-1.094a20 20 0 0 1 1.344-1 7.5 7.5 0 0 1 1.5-.843q.563.094.876.343.343.25.5.594.187.345.28.781l.188.813q.157.531.375.906.219.375.75.625-.437.75-.343 1.5.093.72.187 1.531.094.75-.031 1.469-.094.72-.907 1.281a1.2 1.2 0 0 0-.03.469q.03.25.03.5t-.093.469a.7.7 0 0 1-.344.343q.281.345.281.688.032.344.032.656.03.313.156.563.156.249.687.375.094.406.157.625.093.188.187.312.125.126.313.25.186.094.5.313.25.061.562 0a.47.47 0 0 1 .5.187.5.5 0 0 1 .375-.156q.219-.03.406 0l.407.688q.344-.25.78-.438.438-.188.844-.312.47-.126.938-.22zm-12-10.688a5 5 0 0 1-.687.5q-.407.25-.813.532-.375.28-.656.625a1.4 1.4 0 0 0-.344.75q-.718.124-1 .593a5.2 5.2 0 0 0-.468 1.032q-.188.562-.407 1.124-.219.532-.781.844a.63.63 0 0 1-.344.125q.032 0-.187.125-.344.25-.594.625t-.437.813q-.157.437-.313.906a20 20 0 0 1-.25.813q-.437.062-.656.187t-.282.281a.57.57 0 0 0 .032.313q.062.187.187.406.126.187.25.438.156.25.25.5t.094.5a.65.65 0 0 1-.125.468q.438.345.844.157.405-.22.75-.47l.25-.187q.156-.125.312-.187.72.156 1.313-.094.594-.25 1.093-.687.5-.438.97-.938.468-.5.937-.875l-.25-.25q.562-.156.781-.406.25-.282.313-.625a2.1 2.1 0 0 0 0-.719q-.063-.406-.094-.844a4 4 0 0 1-.032-.468q.032-.25.126-.5-.25-.72-.094-1.376.188-.656.468-1.25.313-.624.594-1.25.282-.625.282-1.312zm32.438 6.157q-.157.968-.375 1.5a2.7 2.7 0 0 1-.563.843 4.6 4.6 0 0 1-.812.625q-.501.282-1.188.844-.25.188-.469.344t-.437.375q-.625.187-1.531.625-.907.406-1.875.843-.938.406-1.813.72-.843.311-1.375.25-.187.249-.656.312a6 6 0 0 1-.719.062q-.406 0-.843.063-.406.061-.72.375-.06.062-.093.062v.032q.03 0 0 0 0 .03-.062.124-.345.407-.72.438-.343.031-.687-.125a4.5 4.5 0 0 1-.718-.344 2.4 2.4 0 0 0-.72-.312 1.2 1.2 0 0 0-.718-.032q-.375.063-.75.5-.219-.561-.687-.656a5 5 0 0 0-.97-.093q-.468-.032-.906-.094-.437-.094-.593-.594v-.031l-.657-.563-.093.094a1.3 1.3 0 0 0-.25.344q-.094.188-.219.343-.25.375-.531.75-.282.345-.625.594-.374.282-.782.407-.405.156-.874.093 0-.75.437-1.375.406-.625.813-1.218.374-.626.5-1.25.093-.657-.532-1.376-.03-.436-.375-.843-.375-.438-.687-.844-.313-.438-.344-.844-.063-.405.531-.812-.28-.063-.375-.219 0-.156.094-.312.063-.188.125-.344.187 0 .406-.063a1.3 1.3 0 0 1 .375-.125.4.4 0 0 1 .313 0q.124.032.25.282.093.187.156.406.063.218.156.437.25.626.625 1.188.375.53.844 1l.094.093q0-.03.125-.156.125-.124.281-.25l.281-.281.188-.187.718-.657a5.5 5.5 0 0 0 .594-.625q.282-.343.407-.75.156-.437.156-1a24 24 0 0 0 1.906-1.437 45 45 0 0 1 1.906-1.563 18 18 0 0 1 2-1.343 7.3 7.3 0 0 1 2.282-.813q.28.5.656.781t.718.563q.376.28.657.687.312.407.437 1.125.25 1.344 0 2.532a17.4 17.4 0 0 1-.656 2.468q-.25.75-.469 1.532a6.8 6.8 0 0 0-.187 1.593l.218.063q.282-.375.626-.469.375-.093.75-.125.376-.03.718-.094.375-.093.625-.468.407.156.75.03.375-.155.719-.406.344-.25.688-.53.343-.282.718-.376l-.031-.25q.563-.375.969-.531.405-.156.75-.312.343-.157.687-.438t.781-.937a.63.63 0 0 1 .344-.032q.219 0 .313.157m-10.906-3.094a1.7 1.7 0 0 0-.344-.094 2 2 0 0 1-.313-.156 2.6 2.6 0 0 0-.531-.282q-.25-.093-.594.063v.063h-.031a24 24 0 0 0-2.969 2.687 52 52 0 0 1-2.843 2.813l-.282-.282q-.219.282-.25.594v.594q0 .28-.062.531-.063.25-.375.469l-.094.062q.125.438.344.563.25.093.5.093.28-.03.531-.062.25-.031.406.094a.3.3 0 0 1 .125.187q.032.126.032.219H52q.188 0 .375-.031a2.1 2.1 0 0 1 .719 0q.406.03.468.468.625-.25 1.282-.53.656-.282 1.062-.907l.219.219h.031q.032-.032.063-.032.78-.468 1.218-1.374.47-.906.688-1.97.22-1.062.25-2.124a32 32 0 0 0 .063-1.875m31.187 1.343-.437.438-.25.313a3 3 0 0 1-.25.28q-.126.157-.407.47a6 6 0 0 0-.469.53 2.8 2.8 0 0 1-.5.5q-.374-.093-.593.094-.187.188-.375.438l-.313.438a.33.33 0 0 1-.344.156q-.75.406-1.5.718-.75.282-1.437.844l-.25-.25-3.25 1.563a1.2 1.2 0 0 0-.312.187 3 3 0 0 1-.313.219q-.687.376-1.437.688-.72.28-1.438.53l-.406.126q.249.624 0 .875-.25.249-.719.375a7 7 0 0 1-1.031.125q-.563.03-.875.218a5 5 0 0 0-.781-.062q-.375.03-.782.094a6 6 0 0 1-.812.062q-.375 0-.813-.093h-.062q-.531.249-.938.093-.375-.125-.687-.437a6 6 0 0 1-.594-.782 6.5 6.5 0 0 0-.531-.843 9 9 0 0 1-.469-.719 5.5 5.5 0 0 1-.469-1 3.3 3.3 0 0 1-.25-1.062q-.062-.563.219-.97.282-.406.469-.874.156-.469.156-1.094v-.406a2.5 2.5 0 0 1-.031-.407q.156 0 .344.032h.343a.5.5 0 0 0 .281-.125q.126-.126.126-.407a.3.3 0 0 0-.126-.25.5.5 0 0 1-.124-.187 3 3 0 0 1 .343-.437q.188-.188.313-.344.125-.187.187-.407.063-.25-.031-.656.375-.656.875-1.156.531-.531 1.094-.969.562-.468 1.156-.906t1.125-.937q.593.249.938 0 .374-.25.656-.532.281-.312.562-.5t.75.157l.063.062q.844-.843 1.687-.75.875.094 1.469.563.626.469.813 1.093.186.594-.344.813.344.344.344.812 0 .47-.25.813-.282.375-.5.781l-.407.813q-.312.718-.687 1.375-.375.624-1.063 1.062-.562-.156-.781.125a2.1 2.1 0 0 0-.281.625 2 2 0 0 1-.219.5q-.125.187-.531-.125l-.063-.062-.062.062a2.2 2.2 0 0 0-.406.563.95.95 0 0 1-.376.468 5 5 0 0 0-.593-.156 29 29 0 0 1-.594-.125q0 .656-.25 1.031-.25.376-.656.625-.375.219-.875.375a6.3 6.3 0 0 0-1 .344 4.3 4.3 0 0 0-.906.5q-.406.281-.657.813.313.343.781.406.47.03.97 0 .5-.063.968-.063.5 0 .875.25l.031.032.031-.032q.75-.093 1.438-.343.72-.282 1.375-.563.688-.312 1.375-.562.72-.282 1.469-.407.156.25.406.282.282.03.531-.032l.031-.062a4 4 0 0 1 .126-.375q.062-.187.187-.407.219-.344.531-.53.313-.189.656-.282a4.7 4.7 0 0 1 .782-.125q.405-.03.812-.094h.063l.031-.093q.125-.375.313-.5.218-.157.437-.22.25-.06.5-.093.282-.03.531-.187.563.187.938-.126.375-.312.719-.656l.25.313.093-.125q.47-.437.688-.657a6 6 0 0 1 .469-.374 3 3 0 0 1 .5-.344q.313-.187.843-.532.438-.28.844-.562.438-.281.844-.625.156.063.156.25v.313a1 1 0 0 0-.062.187q0 .125.062.188m-12.937-3.906q-.031-.03-.063-.031l-.031-.031q-.657-.345-1.094-.313-.437 0-.812.25-.344.219-.657.594-.281.344-.625.656a2.2 2.2 0 0 1-.75.438q-.437.156-1.062-.032l-.188 1q-.062.47-.094.97-.531.186-.843.53-.281.345-.5.75-.187.407-.375.876-.156.436-.438.843l.125.157q.126-.062.281.093l.22.219q.342-.5.906-.844.593-.343 1.187-.625.626-.312 1.188-.656t.843-.906q1-.282 1.5-1.125.5-.844.844-1.75a6 6 0 0 1 .219-.532q.188-.375.219-.53m31.031 4.532a3.4 3.4 0 0 0-.531.968 5.6 5.6 0 0 1-.469 1 2.4 2.4 0 0 1-.657.782q-.375.313-1.062.28a1.35 1.35 0 0 0-.75.688 44 44 0 0 0-.438.969 2.4 2.4 0 0 1-.562.781q-.344.282-1.031.063a6 6 0 0 0-1.594 1 19 19 0 0 0-1.312 1.25 8 8 0 0 0-.5.562 2.6 2.6 0 0 1-.532.469.47.47 0 0 1-.437.031 8 8 0 0 1-.406-.187.67.67 0 0 0-.376-.125q-.156 0-.28.281.217.438.093.594-.125.187-.406.281a5 5 0 0 1-.594.156 1.1 1.1 0 0 0-.5.219q-.375.344-.531.844t-.281 1a3.7 3.7 0 0 1-.376.937q-.218.469-.75.719.313.219.25.438a1.2 1.2 0 0 1-.156.437 2.7 2.7 0 0 0-.187.469q-.032.219.25.437a9 9 0 0 0-.844 1.282l-.687 1.374q-.345.72-.75 1.376-.375.687-.97 1.218l.094.75q-.468-.125-.593.032-.094.156-.094.437v.563q.03.312-.187.468a.6.6 0 0 1-.22.188 1.2 1.2 0 0 0-.187.156 3.8 3.8 0 0 0-1.375 1.906q-.062.187-.094.375-.03.187-.093.407-.156.436-.5.906-.345.468-.75.968-.406.501-.781 1.032-.375.563-.594 1.125-.5-.062-.781.093a1.55 1.55 0 0 0-.5.47q-.189.312-.313.656a2.3 2.3 0 0 1-.312.593 1.26 1.26 0 0 1-.532.406q-.343.157-.875 0l-1.406 1.28q-.375-.219-.719-.094-.375.125-.719.344-.375.219-.718.344-.375.125-.781-.094-.219.25-.376.25-.156.03-.374-.25l-.47.5a5.3 5.3 0 0 0-.906-.594 5.6 5.6 0 0 1-1.03-.594 2.6 2.6 0 0 1-.75-.75q-.282-.406-.094-1.062a2.3 2.3 0 0 0-.188-.406 2 2 0 0 1-.25-.47 1.7 1.7 0 0 1-.125-.468.5.5 0 0 1 .125-.406 1.7 1.7 0 0 1-.187-1.094q.062-.531.218-1.062.156-.532.25-1.063t-.187-1.062q.375-.282.562-.72.156-.436.313-.906.125-.468.281-.906a1.5 1.5 0 0 1 .531-.718l-.031-.5q1.469-1.562 3.125-2.876a11.1 11.1 0 0 1 3.688-1.906q.405-.718 1.062-1.062.656-.313 1.344-.594a5.3 5.3 0 0 0 1.219-.656q.562-.375.843-1.219.156.344.313.281a.74.74 0 0 0 .312-.156q.188-.094.344-.156.156-.031.313.281.312-.937 1-1.5.719-.562 1.562-1l1.75-.812a5.9 5.9 0 0 0 1.531-.938A3.5 3.5 0 0 0 94.062 41q.345-.843.157-2.156a.9.9 0 0 0 .375-.469q.093-.312.125-.625.062-.312.156-.562t.406-.344q-.219-.345-.531-.313t-.656.188q-.313.156-.594.312t-.469.063q-.094.437-.406.625a4.4 4.4 0 0 1-.625.343q-.344.126-.719.282t-.594.5q-.28-.126-.53.125-.22.218-.47.5a1.4 1.4 0 0 1-.5.375q-.28.125-.656-.25-.187.5-.625.656-.406.156-.906.156a9 9 0 0 1-1.031-.062 2.6 2.6 0 0 0-.906.031l-.532-.531a.57.57 0 0 1-.187.25.34.34 0 0 1-.313.031q-.25-.532-.469-1.125a4.6 4.6 0 0 1-.312-1.219 2.5 2.5 0 0 1 .094-1.187q.188-.594.75-1.032.875-1.593 2.281-2.5a.42.42 0 0 0 .344.094q.188-.062.375-.156.219-.125.406-.25a.8.8 0 0 1 .344-.187 1.8 1.8 0 0 1 .344-.657q.28-.312.593-.562.345-.25.688-.438.375-.218.687-.375.594-.28 1.094-.687.53-.438 1.063-.813.53-.406 1.093-.687a2.8 2.8 0 0 1 1.281-.282l.563.5a3.7 3.7 0 0 0-.937.782q-.375.437-.782.906-.405.438-.875.813-.469.375-1.156.5a5.8 5.8 0 0 1-1.531 1.875q-.937.75-1.938 1.406 0 .468-.281.75a3.2 3.2 0 0 1-.656.5q-.375.219-.75.406-.375.156-.625.438-.219.25-.219.656 0 .375.406 1 .375-.188.906-.25.532-.063 1.032-.157.5-.124.875-.343.406-.25.562-.75.438-.375.938-.469a3.4 3.4 0 0 1 1.031-.031 32 32 0 0 1 2.063-2.063 36 36 0 0 0 2-1.968 19 19 0 0 0 1.718-2.126 12.8 12.8 0 0 0 1.406-2.656q.625-.188 1.126.157.5.343.718.875-.062.375-.219.718l-.25.625a5 5 0 0 0-.156.625q-.03.345.125.782-.25-.063-.406.156-.125.218-.281.375.093.405-.031.75a4.4 4.4 0 0 1-.313.625q-.188.281-.344.625-.125.343-.062.75a7 7 0 0 0-.656 1.718 13 13 0 0 0-.25 1.782l.562.5q.406-.594 1-.844a10 10 0 0 1 1.25-.406q.625-.187 1.219-.407.594-.249 1.031-.843.187-.906.781-1.282.594-.406 1.25-.687.657-.281 1.25-.625.626-.375.875-1.187h.782q-.063.156.062.28zm-17.281 13.84a5 5 0 0 1-.688.344q-.375.156-.75.344-.376.187-.687.437a1.55 1.55 0 0 0-.47.625q-.342-.187-.656-.031-.28.187-.562.406a2.7 2.7 0 0 1-.594.407q-.281.156-.625-.032-.593.375-1.125.813-.563.437-1.125.843-.562.438-1.156.782-.625.375-1.312.562-.345.563-.907.875-.563.344-1.125.657-.594.312-1.062.75-.469.436-.594 1.218-.969.625-1.312 1.594a6.5 6.5 0 0 0-.407 2.094q-.031 1.125.094 2.25.125 1.155.125 2.093.406.47.813.657t.843.187q.438 0 .906-.125.438-.094.97-.187.124-.47.468-.625.313-.126.688-.188.343-.062.656-.187.28-.095.312-.5l.281.25q.031-.5.282-.844.249-.312.594-.594.344-.28.75-.531.374-.25.656-.562-.063-.594.219-1 .28-.406.624-.75.345-.345.626-.75.25-.406.187-1.032a.77.77 0 0 0 .438-.406q.124-.281.25-.531a.94.94 0 0 1 .312-.375q.22-.126.656.062-.437-.344-.375-.531a.96.96 0 0 1 .313-.344q.219-.124.406-.312t0-.563q.75-.312.969-.906t.312-1.281q.125-.656.344-1.313.219-.625.969-1-.063-.562.187-1 .282-.406.531-.781.282-.375.376-.781.125-.406-.22-.969zm37.374-8.187q-.437.75-.687 1.218a4.2 4.2 0 0 1-.469.75 3.2 3.2 0 0 1-.531.532 12 12 0 0 1-.813.562 5 5 0 0 1-.687.532 4.3 4.3 0 0 1-.563.374q-.25.157-.406.157a.3.3 0 0 1-.125-.032h-.5q-.156.031-.281-.218a.8.8 0 0 0-.156.218 2 2 0 0 1-.125.22.4.4 0 0 1-.188.187q-.093.062-.281 0l-.156-.188-.469.407a19 19 0 0 0-1.687-.75 6.8 6.8 0 0 1-1.407-.688 3.9 3.9 0 0 1-1.062-1.031q-.438-.657-.625-1.782a1.6 1.6 0 0 0-.344-.312.47.47 0 0 0-.438-.094 3.5 3.5 0 0 1-.75.907q-.437.374-.874.812a1.3 1.3 0 0 0-.25.344q-.094.188-.25.343a1.45 1.45 0 0 1-.594.407l-.688.187a2.1 2.1 0 0 0-.656.313q-.282.219-.406.75a.98.98 0 0 0-.75-.125 31 31 0 0 1-.594.125 2.2 2.2 0 0 1-.625.093q-.28.031-.563-.062-.28-.093-.5-.406-.437.187-.812-.032a2.8 2.8 0 0 1-.719-.53q-.312-.375-.625-.782-.312-.406-.594-.594-.186-.5.032-.843.188-.376.437-.688.219-.344.313-.656.093-.344-.282-.813.313-.468.563-.968.25-.532.5-1.032.28-.53.563-1 .312-.5.75-.843-.189-.22-.188-.407a.9.9 0 0 1 .094-.406q.093-.219.218-.406.126-.22.188-.407l.906-.437-.218-.75q.343.063.5-.031a.48.48 0 0 0 .25-.282q.093-.187.124-.406a2 2 0 0 1 .157-.437.9.9 0 0 1 .469-.407q.656-.5 1.281-1.062.656-.563 1.281-1.094a20 20 0 0 1 1.344-1 7.5 7.5 0 0 1 1.5-.843q.562.094.875.343.344.25.5.594.188.345.281.781l.188.813q.156.531.374.906.219.375.75.625-.437.75-.343 1.5.093.72.187 1.531.094.75-.031 1.469-.094.72-.906 1.281a1.2 1.2 0 0 0-.031.469q.03.25.031.5 0 .25-.094.469a.7.7 0 0 1-.344.343q.282.345.281.688.032.344.032.656.031.313.156.563.156.249.688.375.093.406.156.625.093.188.187.312.126.126.313.25.187.094.5.313.25.061.562 0a.465.465 0 0 1 .5.187.5.5 0 0 1 .375-.156q.219-.03.407 0l.406.688q.343-.25.781-.438t.844-.312q.468-.126.937-.22zm-12-10.688a5 5 0 0 1-.687.5 18 18 0 0 0-.813.532q-.375.28-.656.625a1.4 1.4 0 0 0-.344.75q-.718.124-1 .593a5.2 5.2 0 0 0-.468 1.032q-.188.562-.406 1.124-.22.532-.782.844a.63.63 0 0 1-.344.125q.032 0-.187.125a2.4 2.4 0 0 0-.594.625 5 5 0 0 0-.437.813q-.157.437-.313.906-.124.438-.25.813-.437.062-.656.187t-.281.281a.56.56 0 0 0 .031.313q.063.187.187.406.126.187.25.438.157.25.25.5.094.25.094.5a.65.65 0 0 1-.125.468q.438.345.844.157a7 7 0 0 0 .75-.47l.25-.187q.156-.125.313-.187.718.156 1.312-.094t1.094-.687.968-.938q.47-.5.938-.875l-.25-.25q.562-.156.781-.406.25-.282.313-.625.061-.344 0-.719-.063-.406-.094-.844a4 4 0 0 1-.031-.468 2.2 2.2 0 0 1 .125-.5q-.25-.72-.094-1.376.187-.656.469-1.25.312-.624.593-1.25.282-.625.282-1.312zm42 2.594q.032.531-.124 1.031-.157.47-.344.969-.187.469-.375.969a3.2 3.2 0 0 0-.157 1 .63.63 0 0 0-.562.218 2.4 2.4 0 0 0-.344.563 7 7 0 0 0-.218.719q-.095.344-.188.531a11.6 11.6 0 0 1-1.594 2.281 17.4 17.4 0 0 1-2.094 2 21 21 0 0 1-4.874 2.938l-.032.031q-.562 0-1.25-.031a1.72 1.72 0 0 1-1.125-.469 2.3 2.3 0 0 1-.969-.094q-.531-.125-.843-.437l-.031-.032a4.3 4.3 0 0 0-.532-.75 17 17 0 0 0-.625-.656q-.437-.468-.843-.906a3.3 3.3 0 0 1-.594-1.062q-.25-.72-.469-1.438-.188-.75-.5-1.469-.562.688-1.156 1.188-.594.468-1.157.937a8.6 8.6 0 0 0-1.062 1.063q-.469.594-.844 1.5l-.031.062q-.938 0-1.625.5-.657.47-1.281.907-.625.437-1.313.624-.656.189-1.531-.437h-1.063l-.031-.062a45 45 0 0 1-1.093-2.438 17 17 0 0 1-.782-2.594 11.6 11.6 0 0 1-.25-2.656 7.7 7.7 0 0 1 .532-2.625q.218-.53.468-1 .282-.469.625-.937.031-.032.031-.063.188.156.376-.094a8 8 0 0 1 .312-.343V29a.8.8 0 0 1 .25-.031h.625a.2.2 0 0 0 .156-.157q.031-.03 0-.093a.3.3 0 0 1-.031-.125q0-.375.188-.594.218-.25.5-.437.28-.188.562-.313.282-.156.406-.312.25 0 .469.03.219 0 .406.157a.76.76 0 0 1 .25.438q.094.28.094.593.031.282.063.594.03.312.124.531l.032.032q0 .437-.219.75a2.8 2.8 0 0 1-.469.53 12 12 0 0 1-.531.5 1.3 1.3 0 0 0-.344.595v.03q-.344.438-.719.876-.344.437-.75.875.345.28.219.5a.95.95 0 0 1-.312.343 1.3 1.3 0 0 0-.281.313q-.063.156.343.344a1.9 1.9 0 0 1-.312.562q-.219.25-.438.532a2.4 2.4 0 0 0-.281.562q-.063.282.188.625l.062.031q-.093.156-.062.594.061.406.156.906l.25.938q.124.437.156.656.25.405.594.563.375.124.687.093a1.13 1.13 0 0 0 .563-.187q.25-.157.25-.375l.218-.094q.063.219.188.219a1 1 0 0 0 .281-.125q.156-.063.219-.094a1 1 0 0 1 .219-.062q.562-.125 1.156-.532.625-.406 1.156-.937.532-.531.907-1.157.406-.624.562-1.156v-.062h.062a2.6 2.6 0 0 0 1.032-.719q.406-.468.75-.937.344-.501.75-.876.406-.405 1.031-.53a1.2 1.2 0 0 1 .281-.438q.188-.22.344-.407.188-.217.312-.406a.8.8 0 0 0 .157-.468q0-.126-.063-.313a2 2 0 0 1-.031-.25q.125-.125.5-.406.375-.313.75-.657.406-.343.75-.656.344-.312.406-.468l.063.062q.344.345.468.719.126.343.126.718 0 .345-.094.75-.094.375-.156.75l-.032.032q-.187.313-.375.562a4 4 0 0 1-.406.469q-.406.406-.75 1 .094.469 0 .938l-.187.937a4 4 0 0 0-.094.875q.031.438.312.875-.28.156-.312.344 0 .156.094.343l.25.376q.156.187.187.406.438.562 1.031.875a4.5 4.5 0 0 0 1.25.437q.656.126 1.313.157h2.219q.999 0 1.593-.47a4.8 4.8 0 0 0 1.031-1.124q.47-.657.938-1.344a3.7 3.7 0 0 1 1.219-1.125q0-.5.219-.75.218-.25.437-.437.25-.188.375-.407.156-.25-.031-.718.375-.126.625-.47.25-.342.437-.75.219-.436.375-.843a4.2 4.2 0 0 1 .406-.75 1.8 1.8 0 0 1-.062-.656q.063-.313.094-.594.031-.312-.063-.594-.094-.28-.469-.593l-.031-.032v-.031q-.156-.375-.062-.625.125-.25.312-.469.219-.219.375-.406a.5.5 0 0 0 .156-.437q.97 0 1.376.343.437.313.562.844.125.5.062 1.156-.03.657 0 1.344m23.969 8.094q-.437.75-.687 1.218a4.2 4.2 0 0 1-.469.75 3.2 3.2 0 0 1-.531.532q-.282.219-.813.562a5 5 0 0 1-.687.532 4.4 4.4 0 0 1-.563.374q-.25.157-.406.157a.3.3 0 0 1-.125-.032h-.5q-.156.031-.281-.218a.8.8 0 0 0-.157.218 2 2 0 0 1-.124.22.4.4 0 0 1-.188.187q-.093.062-.281 0l-.157-.188-.468.407a19 19 0 0 0-1.688-.75A6.8 6.8 0 0 1 172.25 42a3.8 3.8 0 0 1-1.062-1.031q-.437-.657-.626-1.782a1.6 1.6 0 0 0-.343-.312.47.47 0 0 0-.438-.094 3.5 3.5 0 0 1-.75.907q-.437.374-.875.812a1.3 1.3 0 0 0-.25.344q-.094.188-.25.343a1.44 1.44 0 0 1-.594.407l-.687.187a2.1 2.1 0 0 0-.656.313q-.281.219-.407.75a.98.98 0 0 0-.75-.125 29 29 0 0 1-.593.125 2.2 2.2 0 0 1-.625.093q-.281.031-.563-.062-.28-.093-.5-.406-.437.187-.812-.032a2.8 2.8 0 0 1-.719-.53q-.312-.375-.625-.782-.312-.406-.594-.594-.187-.5.031-.843.188-.376.438-.688.219-.344.312-.656.094-.344-.281-.813.313-.468.563-.968.25-.532.5-1.032.281-.53.562-1a3.3 3.3 0 0 1 .75-.843q-.187-.22-.187-.407 0-.219.093-.406.094-.219.219-.406.125-.22.188-.407l.906-.437-.219-.75q.344.063.5-.031a.47.47 0 0 0 .25-.282 1.3 1.3 0 0 0 .125-.406 2 2 0 0 1 .157-.437.9.9 0 0 1 .468-.407q.657-.5 1.282-1.062.656-.563 1.281-1.094.656-.53 1.343-1a7.6 7.6 0 0 1 1.5-.843q.563.094.876.343.343.25.5.594.186.345.281.781l.187.813q.156.531.375.906t.75.625q-.437.75-.343 1.5.093.72.187 1.531.094.75-.031 1.469-.094.72-.906 1.281a1.2 1.2 0 0 0-.032.469q.032.25.032.5t-.094.469a.7.7 0 0 1-.344.343q.281.345.281.688.031.344.031.656.031.313.157.563.156.249.687.375.094.406.156.625.095.188.188.312.125.126.312.25.189.094.5.313.25.061.563 0a.47.47 0 0 1 .5.187.5.5 0 0 1 .375-.156q.219-.03.406 0l.406.688q.344-.25.782-.438.437-.188.844-.312.468-.126.937-.22zm-12-10.688a5 5 0 0 1-.687.5 18 18 0 0 0-.813.532q-.375.28-.656.625a1.4 1.4 0 0 0-.344.75q-.718.124-1 .593a5.3 5.3 0 0 0-.469 1.032q-.186.562-.406 1.124-.219.532-.781.844a.64.64 0 0 1-.344.125q.032 0-.187.125a2.4 2.4 0 0 0-.594.625q-.25.375-.438.813-.156.437-.312.906a20 20 0 0 1-.25.813q-.437.062-.656.187t-.282.281a.6.6 0 0 0 .032.313q.062.187.187.406.126.187.25.438.156.25.25.5t.094.5a.65.65 0 0 1-.125.468q.438.345.844.157a6.5 6.5 0 0 0 1-.657 1.2 1.2 0 0 1 .312-.187q.719.156 1.313-.094t1.093-.687q.501-.438.969-.938.469-.5.938-.875l-.25-.25q.562-.156.781-.406.25-.282.312-.625.063-.344 0-.719-.062-.406-.093-.844a4 4 0 0 1-.031-.468q.03-.25.124-.5-.249-.72-.093-1.376.187-.656.469-1.25.312-.624.593-1.25.281-.625.281-1.312zm62-8.75q0 .281-.093.5a7.5 7.5 0 0 1-1.219-1.093 7.6 7.6 0 0 0-1.157-1.157A3.9 3.9 0 0 0 228 16.75q-.687-.25-1.656.063-.469-.25-.875 0a12 12 0 0 0-.75.5v.187q-.282 0-.594-.062a1.3 1.3 0 0 0-.563 0 .68.68 0 0 0-.437.25q-.156.218-.156.78-.625-.093-1.063.25-.406.345-.718.782a14 14 0 0 1-.563.813q-.281.343-.625.28 0 .032-.062.095-.25.375-.594.718a9 9 0 0 0-.594.657 35 35 0 0 0-2.406 3.593 39 39 0 0 0-1.906 3.844q-.72.313-1.063.813a3.2 3.2 0 0 0-.5 1.03q-.125.532-.187 1.126-.031.563-.157 1.125a2.9 2.9 0 0 1-.375 1q-.28.436-.906.75l.125.531q.313-.125.469.031a.7.7 0 0 1 .187.438q.032.28-.031.593a2.3 2.3 0 0 1-.094.47q-.687.687-.718 1.437-.031.718.062 1.437.094.72.031 1.407-.031.656-.75 1.25a1.15 1.15 0 0 0-.562-.157 1.5 1.5 0 0 0-.563.125 1.7 1.7 0 0 1-.375.063q-.125 0-.312-.219a1.1 1.1 0 0 1-.219-.5 5 5 0 0 1-.094-.594q0-.312-.031-.625 0-.312-.031-.531.781-1 .937-2.062a10.7 10.7 0 0 0 .157-2.157q0-1.093.031-2.187t.562-2.157q0-.344-.093-.437a4 4 0 0 1-.188-.344l.25-.125a9.4 9.4 0 0 1-.094-1.968q.094-.906.282-1.97l.031-.187-.125-.125q-.219-.219-.219-.468.032-.25.125-.5.125-.25.219-.47a.7.7 0 0 0 .062-.5 10 10 0 0 0-.219-.75q-.093-.404-.156-.812a220 220 0 0 0-.406-1.656q-.188-.75-.719-1.531-.593.156-1.187.437a6 6 0 0 0-1.125.625q-.5.375-.907.875-.405.5-.593 1.094l-.031.094q.03.03.031.093a.6.6 0 0 1-.125.438q-.126.187-.313.438a2.6 2.6 0 0 0-.343.53q-.157.282-.126.688.031.313-.093.719-.126.406-.313.813-.188.405-.437.78-.219.376-.407.626v.031q-.375.687-.593 1.438-.219.75-.407 1.53-.187.75-.468 1.5-.25.72-.75 1.376a3.2 3.2 0 0 1 .187 1.75 7.8 7.8 0 0 1-.469 1.718 92 92 0 0 1-.656 1.72 4.9 4.9 0 0 0-.312 1.718v.281q.031.125.031.282a.67.67 0 0 1-.437.312 1.8 1.8 0 0 1-.563-.031 5 5 0 0 1-.594-.219 7 7 0 0 1-.469-.281q-.405-.313-.437-.688-.031-.405.063-.812.093-.407.156-.813.062-.405-.125-.75.219-.843.5-1.625.312-.812.562-1.625a18 18 0 0 0 .469-1.656 8 8 0 0 0 .25-1.75 2.9 2.9 0 0 0 .531-1.031q.156-.562.25-1.125t.219-1.125.406-1.094l.032-.031q0-.032.031-.063a5.4 5.4 0 0 0 .156-1.468 22 22 0 0 0-.125-1.5q0-.157-.031-.407v-.531q0-.28-.031-.5 0-.25-.032-.344a.6.6 0 0 0-.031-.187.6.6 0 0 1-.031-.188q0-.594.218-1.156.219-.594.219-1.219 0-.53-.312-1a1.86 1.86 0 0 0-.75-.75.4.4 0 0 0-.188-.031q-.437 0-.719.188-.25.156-.406.437a2.2 2.2 0 0 0-.25.594q-.062.312-.125.656 0 .124-.062.375-.031.25-.094.313-.156.312-.437.656-.25.344-.469.656-.594.844-1.031 1.719a13.5 13.5 0 0 0-.719 1.843q-.376-.03-.625.063a1 1 0 0 0-.375.281q-.157.188-.313.438a2.6 2.6 0 0 1-.375.468l-.219.22.157.155q-.531.345-.75.907t-.313 1.187q-.062.469-.125.782a1.4 1.4 0 0 1-.25.5.87.87 0 0 1-.437.218q-.313.031-.813-.031h-.093l-.063.063q-.5.25-.563.593a1.6 1.6 0 0 0-.062.625v.563q-.031.25-.438.281-.406.063-.874.031a1.9 1.9 0 0 1-.844-.25q0-.28-.032-.437a5.34 5.34 0 0 1 .469-2.469q.5-1.187 1.157-2.219v-.031h.031v-.062q.218-.844.593-1.75.344-.907.813-1.75.47-.844 1.063-1.594.561-.75 1.25-1.282a4 4 0 0 1-.126-.375q0-.156.063-.218a.5.5 0 0 1 .187-.157 3 3 0 0 0 .407-.218q.125-.282.406-.625.281-.375.625-.75.344-.407.656-.75.344-.344.563-.594.75-.75 1.312-1.437a9.4 9.4 0 0 0 1.094-1.688q.531.156 1.156.25.657.094 1.188-.062.062.375.281.624.25.25.594.376.094.5.406 1.062t.625 1.156.469 1.157q.188.562.062 1.03a5 5 0 0 0-.125.5q0 .188-.031.345a.7.7 0 0 1-.125.25 4 4 0 0 1-.313.343 4.6 4.6 0 0 0 .626.407.8.8 0 0 0 .687.062.8.8 0 0 0 .406-.375q.125-.25.188-.531.093-.282.156-.532.094-.28.281-.468.531-.47 1-.969.47-.5.969-.937a5.6 5.6 0 0 1 1.094-.75 3.9 3.9 0 0 1 1.343-.407q.563.188.813.625.281.438.469.938l.375 1q.187.5.625.875a5.5 5.5 0 0 0-.032 1q.063.468.688.625.063.687.062 1.218 0 .532.032 1.032.062.469.218 1 .157.5.5 1.156l.282-.437q.188-.313.437-.563.25-.25.469-.5.25-.25.438-.531a2.6 2.6 0 0 0 .281-.688q.437-.062.593-.281.157-.25.407-.5-.031-.406.219-1.031.28-.657.656-1.344.375-.687.75-1.344.375-.656.531-1.156a4 4 0 0 0 1.563-.937q.718-.657 1.406-1.282a7 7 0 0 1 1.5-1.062q.781-.438 1.844-.219.844 0 1.468.125.656.094 1.25.281t1.188.5q.594.281 1.312.656.032 0 .188.094.156.063.312.156.156.094.282.188l.156.063q.437.624.937 1.406.5.75.5 1.562m11.969 13.157-.438.437-.25.313a3 3 0 0 1-.25.28q-.124.157-.406.47a6 6 0 0 0-.468.53 3 3 0 0 1-.5.5q-.375-.093-.594.094-.188.188-.375.438l-.313.438a.33.33 0 0 1-.344.156q-.75.406-1.5.718a5.1 5.1 0 0 0-1.437.844l-.25-.25-3.25 1.563a1.3 1.3 0 0 0-.313.187 3 3 0 0 1-.312.219q-.687.376-1.438.688-.719.28-1.437.53l-.406.126q.249.624 0 .875-.25.249-.719.375a7 7 0 0 1-1.031.125q-.563.03-.875.218a5 5 0 0 0-.782-.062q-.375.03-.781.094a6 6 0 0 1-.812.062 4 4 0 0 1-.813-.093h-.062q-.531.249-.938.093a1.75 1.75 0 0 1-.687-.437 6 6 0 0 1-.594-.782 6.6 6.6 0 0 0-.531-.843 9 9 0 0 1-.469-.719 5.5 5.5 0 0 1-.469-1 3.3 3.3 0 0 1-.25-1.062q-.061-.563.219-.97.281-.406.469-.874.156-.469.156-1.094v-.406a2.5 2.5 0 0 1-.031-.407q.156 0 .343.032h.344a.5.5 0 0 0 .282-.125q.124-.126.124-.407a.3.3 0 0 0-.124-.25.5.5 0 0 1-.126-.187q.189-.28.344-.437.187-.188.313-.344.125-.187.187-.407.063-.25-.031-.656.375-.656.875-1.156.531-.531 1.094-.969.562-.468 1.156-.906t1.125-.937q.594.249.937 0 .375-.25.657-.532.281-.312.562-.5t.75.157l.063.062q.844-.843 1.687-.75.875.094 1.469.563.626.469.812 1.093.189.594-.343.813.343.344.343.812 0 .47-.25.813-.28.375-.5.781l-.406.813q-.312.718-.687 1.375a3.2 3.2 0 0 1-1.063 1.062q-.562-.156-.781.125a2.1 2.1 0 0 0-.281.625 2 2 0 0 1-.219.5q-.125.187-.531-.125l-.063-.062-.062.062a2.2 2.2 0 0 0-.407.563.95.95 0 0 1-.374.468 5 5 0 0 0-.594-.156 28 28 0 0 1-.594-.125q0 .656-.25 1.031-.25.376-.656.625-.375.219-.875.375a6.3 6.3 0 0 0-1 .344 4.3 4.3 0 0 0-.907.5q-.405.281-.656.813.313.343.782.406.468.03.968 0 .5-.063.969-.063.5 0 .875.25l.031.032.031-.032q.75-.093 1.438-.343.719-.282 1.375-.563.688-.312 1.375-.562a7.3 7.3 0 0 1 1.469-.407q.156.25.406.282.281.03.531-.032l.032-.062q.062-.219.124-.375.063-.187.188-.407.219-.344.531-.53.313-.189.657-.282.375-.093.781-.125.406-.03.812-.094h.063l.031-.093q.124-.375.313-.5.218-.157.437-.22.25-.06.5-.093a1.25 1.25 0 0 0 .531-.187q.563.187.938-.126.375-.312.718-.656l.25.313.094-.125q.47-.437.688-.657.25-.218.468-.374a3 3 0 0 1 .5-.344q.313-.187.844-.532.438-.28.844-.562a8 8 0 0 0 .844-.625q.156.063.156.25v.313a1 1 0 0 0-.062.187q0 .125.062.188m-12.938-3.907q-.03-.03-.062-.031l-.031-.031q-.656-.345-1.094-.313-.438 0-.813.25a2.9 2.9 0 0 0-.656.594q-.281.344-.625.656a2.2 2.2 0 0 1-.75.438q-.437.156-1.062-.032l-.188 1q-.062.47-.093.97-.532.186-.844.53-.281.345-.5.75-.188.407-.375.876-.156.436-.438.843l.125.157q.125-.062.282.093l.218.219q.344-.5.906-.844.594-.343 1.188-.625.625-.312 1.188-.656t.843-.906q1-.282 1.5-1.125.5-.844.844-1.75a6 6 0 0 1 .219-.532q.188-.375.218-.53m30.907 5.032q-.282 1.5-1 2.437-.689.906-1.875 1.844.219.093.25.218a.5.5 0 0 1 .062.282l-.062.156q-.282-.219-.532-.219a.74.74 0 0 0-.468.094 1.7 1.7 0 0 0-.438.281 6 6 0 0 0-.437.344q-.688 0-1.438.219-.75.187-1.469.281a2.9 2.9 0 0 1-1.281-.094q-.594-.22-.969-1.031a4 4 0 0 0-.531-.156 5 5 0 0 0-.5-.157A11.3 11.3 0 0 1 249.719 40a14.6 14.6 0 0 1-1.688 1.719q-.937.781-2 1.406a10.2 10.2 0 0 1-2.062.969l-.094.031a.9.9 0 0 0-.219-.25.26.26 0 0 0-.218-.031q-.094.03-.25.062a.8.8 0 0 1-.344.063l-.219.375q-.438-.313-.531-.719a.75.75 0 0 0-.469-.531l-.281.343-.094-.093q-.562-.563-.969-1.469a11.4 11.4 0 0 1-.969-3.937q-.093-1 0-1.75a2.6 2.6 0 0 0-.593-.438.76.76 0 0 1-.407-.562l.032-.032q.061-.374.375-.5.281-.124.625-.156.344-.03.656-.031.313 0 .406-.125a.6.6 0 0 0-.156-.375 5 5 0 0 0-.25-.344q0-.312.156-.469t.344-.281.344-.219q.156-.093.156-.25a.4.4 0 0 0-.062-.218 1.4 1.4 0 0 1-.126-.25q.469-.063.563-.313t.406-.531a.49.49 0 0 1-.062-.532q.125-.312.281-.593a3 3 0 0 0 .219-.563q.093-.28-.157-.5h-.031q0-.03-.031-.031.657-1.937 1.281-3.875.657-1.968 1.375-3.875.75-1.905 1.594-3.75a35 35 0 0 1 1.969-3.594q.03-.405.219-.625.218-.219.5-.312.28-.125.624-.219t.626-.25q.28-.187.468-.469.188-.28.188-.812.5.125.937.125t.844.031q.438.03.813.188.406.156.781.624l.031.032q.031.124-.031.375a3 3 0 0 0-.031.375q0 .625.093 1.281.126.656.094 1.313a3.3 3.3 0 0 1-.281 1.187q-.25.531-.938.938.314.811 0 1.468a5.2 5.2 0 0 1-.781 1.219q-.5.594-.969 1.219a2.4 2.4 0 0 0-.437 1.406 1.85 1.85 0 0 0-.781.719q-.282.437-.563.937a5.5 5.5 0 0 1-.594.938q-.312.405-.937.593a4.84 4.84 0 0 1-1.032 2q-.75.876-1.531 1.72a16 16 0 0 0-1.406 1.75q-.594.905-.594 2.093-.875.844-1.156 1.938-.25 1.093-.25 2.25 0 .343.031.687.032.344.032.688-.25-.157-.438.124l-.031.063q.25.657.562 1.281.344.594.844 1.125a36 36 0 0 0 1.594-.531 15 15 0 0 1 1.656-.531q.188-.75.687-1.032a10 10 0 0 1 1.032-.53q.53-.22.937-.532t.407-1.125h.062q.468-.093.719-.406.249-.345.375-.75.156-.438.187-.907.063-.468.094-.843-.094-.156-.063-.438.063-.312.094-.625a2.6 2.6 0 0 0 .032-.687q0-.345-.157-.625v-.063l.031-.062q.157-.313.313-.563.156-.28.281-.593.313-.844.719-1.313.407-.469 1.406-.469.626.375.719.813.125.437 0 .937t-.281 1.063a2.3 2.3 0 0 0-.063 1.062l.063.094a.63.63 0 0 0-.344.188 5 5 0 0 0-.313.343l-.312.375q-.125.188-.219.313.219.343.25.718.031.344.063.657.062.28.25.531.219.22.75.25.562.063 1.156.156.594.094 1.156.125.594 0 1.125-.125.563-.124 1.031-.531 0-.406.157-.531a1 1 0 0 1 .406-.157q.25-.03.5-.03a.57.57 0 0 0 .406-.25.7.7 0 0 1-.25-.126q-.031-.093-.25.094l-.093-.437.187-.126q.22.188.437.126.22-.094.407-.25.219-.188.406-.376.219-.218.406-.312l.188-.281zm-9.438-19.876q-.093.032-.219.094-.437.22-.937.5a6 6 0 0 0-.937.656q-.406.344-.688.813a1.8 1.8 0 0 0-.281 1v.313q0 .187.062.25-.124.062-.25.28-.094.189-.25.438a2 2 0 0 1-.343.438.96.96 0 0 1-.5.25q.28.406.281.843 0 .407-.157.813-.156.406-.437.813-.25.375-.5.718l-.125-.093q.156.624.031 1.187a5 5 0 0 1-.312 1.063q-.187.5-.438 1a6 6 0 0 0-.406 1.062q.25-.28.437-.594l.438-.625q.063.063.219.188.187.093.25.093a5 5 0 0 1-.188-.343 5 5 0 0 0-.187-.344v-.062a4.6 4.6 0 0 1 1-1.188q.594-.531 1.125-1.062 0-.876.343-1.407.375-.562.813-1 .469-.468.813-.906.374-.469.374-1.156 0-.156-.031-.407a1.8 1.8 0 0 0-.093-.437l.093-.031q.594-.187.781-.532.189-.375.188-.78.031-.438-.031-.907-.031-.5.062-.937"/></svg>